<svg width="15" height="15" viewBox="0 0 15 15" fill="none" xmlns="http://www.w3.org/2000/svg">
<g id="calendar-sv">
<g id="calendar-sv_2">
<path d="M5.02161 5.02557C5.02161 5.57782 4.57385 6.02557 4.02161 6.02557C3.46936 6.02557 3.02161 5.57782 3.02161 5.02557C3.02161 4.47333 3.46936 4.02557 4.02161 4.02557C4.57385 4.02557 5.02161 4.47333 5.02161 5.02557Z" fill="#525252"/>
<path d="M4.02161 9.27557C4.57385 9.27557 5.02161 8.82782 5.02161 8.27557C5.02161 7.72333 4.57385 7.27557 4.02161 7.27557C3.46936 7.27557 3.02161 7.72333 3.02161 8.27557C3.02161 8.82782 3.46936 9.27557 4.02161 9.27557Z" fill="#525252"/>
<path d="M5.02161 11.2756C5.02161 11.8278 4.57385 12.2756 4.02161 12.2756C3.46936 12.2756 3.02161 11.8278 3.02161 11.2756C3.02161 10.7233 3.46936 10.2756 4.02161 10.2756C4.57385 10.2756 5.02161 10.7233 5.02161 11.2756Z" fill="#525252"/>
<path d="M7.52161 6.02557C8.07385 6.02557 8.52161 5.57782 8.52161 5.02557C8.52161 4.47333 8.07385 4.02557 7.52161 4.02557C6.96936 4.02557 6.52161 4.47333 6.52161 5.02557C6.52161 5.57782 6.96936 6.02557 7.52161 6.02557Z" fill="#525252"/>
<path d="M8.52161 8.27557C8.52161 8.82782 8.07385 9.27557 7.52161 9.27557C6.96936 9.27557 6.52161 8.82782 6.52161 8.27557C6.52161 7.72333 6.96936 7.27557 7.52161 7.27557C8.07385 7.27557 8.52161 7.72333 8.52161 8.27557Z" fill="#525252"/>
<path d="M7.52161 12.2756C8.07385 12.2756 8.52161 11.8278 8.52161 11.2756C8.52161 10.7233 8.07385 10.2756 7.52161 10.2756C6.96936 10.2756 6.52161 10.7233 6.52161 11.2756C6.52161 11.8278 6.96936 12.2756 7.52161 12.2756Z" fill="#525252"/>
<path d="M12.0216 5.02557C12.0216 5.57782 11.5739 6.02557 11.0216 6.02557C10.4694 6.02557 10.0216 5.57782 10.0216 5.02557C10.0216 4.47333 10.4694 4.02557 11.0216 4.02557C11.5739 4.02557 12.0216 4.47333 12.0216 5.02557Z" fill="#525252"/>
<path d="M11.0216 9.27557C11.5739 9.27557 12.0216 8.82782 12.0216 8.27557C12.0216 7.72333 11.5739 7.27557 11.0216 7.27557C10.4694 7.27557 10.0216 7.72333 10.0216 8.27557C10.0216 8.82782 10.4694 9.27557 11.0216 9.27557Z" fill="#525252"/>
<path fill-rule="evenodd" clip-rule="evenodd" d="M2.27161 0.275574C1.16711 0.275574 0.271606 1.17096 0.271606 2.27557V12.7756C0.271606 13.8802 1.16711 14.7756 2.27161 14.7756H12.7716C13.8761 14.7756 14.7716 13.8802 14.7716 12.7756V2.27557C14.7716 1.17096 13.8761 0.275574 12.7716 0.275574H2.27161ZM12.7716 2.77557H2.27161C2.07043 2.77557 1.88733 2.85504 1.75256 2.98431C1.60999 3.12079 1.52161 3.31281 1.52161 3.52557V12.7756C1.52161 13.1898 1.85754 13.5256 2.27161 13.5256H12.7716C13.1857 13.5256 13.5216 13.1898 13.5216 12.7756V3.52557C13.5216 3.11139 13.1857 2.77557 12.7716 2.77557Z" fill="#525252"/>
</g>
</g>
</svg>
