<svg width="24" height="25" viewBox="0 0 24 25" fill="none" xmlns="http://www.w3.org/2000/svg">
<g id="material-symbols:add-a-photo-outline">
<path id="Vector" d="M3 21.0256C2.45 21.0256 1.979 20.8296 1.587 20.4376C1.195 20.0456 0.999335 19.575 1 19.0256V7.02563C1 6.47563 1.196 6.00463 1.588 5.61263C1.98 5.22063 2.45067 5.02497 3 5.02563H6.15L8 3.02563H14V5.02563H8.875L7.05 7.02563H3V19.0256H19V10.0256H21V19.0256C21 19.5756 20.804 20.0466 20.412 20.4386C20.02 20.8306 19.5493 21.0263 19 21.0256H3ZM19 7.02563V5.02563H17V3.02563H19V1.02563H21V3.02563H23V5.02563H21V7.02563H19ZM11 17.5256C12.25 17.5256 13.3127 17.088 14.188 16.2126C15.0633 15.3373 15.5007 14.275 15.5 13.0256C15.5 11.7756 15.0623 10.713 14.187 9.83764C13.3117 8.9623 12.2493 8.52497 11 8.52563C9.75 8.52563 8.68734 8.9633 7.812 9.83863C6.93667 10.714 6.49934 11.7763 6.5 13.0256C6.5 14.2756 6.93767 15.3383 7.813 16.2136C8.68834 17.089 9.75067 17.5263 11 17.5256ZM11 15.5256C10.3 15.5256 9.70834 15.284 9.225 14.8006C8.74167 14.3173 8.5 13.7256 8.5 13.0256C8.5 12.3256 8.74167 11.734 9.225 11.2506C9.70834 10.7673 10.3 10.5256 11 10.5256C11.7 10.5256 12.2917 10.7673 12.775 11.2506C13.2583 11.734 13.5 12.3256 13.5 13.0256C13.5 13.7256 13.2583 14.3173 12.775 14.8006C12.2917 15.284 11.7 15.5256 11 15.5256Z" fill="white"/>
</g>
</svg>
