<svg width="4" height="17" viewBox="0 0 4 17" fill="none" xmlns="http://www.w3.org/2000/svg">
<g id="more-sv">
<path id="more-sv_2" d="M2 4.52557C3.1 4.52557 4 3.62557 4 2.52557C4 1.42557 3.1 0.525574 2 0.525574C0.9 0.525574 0 1.42557 0 2.52557C0 3.62557 0.9 4.52557 2 4.52557ZM2 6.52557C0.9 6.52557 0 7.42557 0 8.52557C0 9.62557 0.9 10.5256 2 10.5256C3.1 10.5256 4 9.62557 4 8.52557C4 7.42557 3.1 6.52557 2 6.52557ZM2 12.5256C0.9 12.5256 0 13.4256 0 14.5256C0 15.6256 0.9 16.5256 2 16.5256C3.1 16.5256 4 15.6256 4 14.5256C4 13.4256 3.1 12.5256 2 12.5256Z" fill="#525252"/>
</g>
</svg>
