<svg width="24" height="25" viewBox="0 0 24 25" fill="none" xmlns="http://www.w3.org/2000/svg">
<g id="settings">
<path id="Vector" d="M9.24995 22.0256L8.84995 18.8256C8.63329 18.7423 8.42895 18.6423 8.23695 18.5256C8.04495 18.409 7.85762 18.284 7.67495 18.1506L4.69995 19.4006L1.94995 14.6506L4.52495 12.7006C4.50828 12.584 4.49995 12.4713 4.49995 12.3626V11.6886C4.49995 11.58 4.50828 11.4673 4.52495 11.3506L1.94995 9.40063L4.69995 4.65063L7.67495 5.90063C7.85828 5.7673 8.04995 5.6423 8.24995 5.52563C8.44995 5.40897 8.64995 5.30897 8.84995 5.22563L9.24995 2.02563H14.75L15.15 5.22563C15.3666 5.30897 15.571 5.40897 15.763 5.52563C15.955 5.6423 16.1423 5.7673 16.325 5.90063L19.2999 4.65063L22.0499 9.40063L19.475 11.3506C19.4916 11.4673 19.5 11.58 19.5 11.6886V12.3626C19.5 12.4713 19.4833 12.584 19.45 12.7006L22.025 14.6506L19.275 19.4006L16.325 18.1506C16.1416 18.284 15.95 18.409 15.75 18.5256C15.55 18.6423 15.35 18.7423 15.15 18.8256L14.75 22.0256H9.24995ZM12.05 15.5256C13.0166 15.5256 13.8416 15.184 14.525 14.5006C15.2083 13.8173 15.55 12.9923 15.55 12.0256C15.55 11.059 15.2083 10.234 14.525 9.55063C13.8416 8.8673 13.0166 8.52563 12.05 8.52563C11.0666 8.52563 10.2373 8.8673 9.56195 9.55063C8.88662 10.234 8.54928 11.059 8.54995 12.0256C8.54995 12.9923 8.88729 13.8173 9.56195 14.5006C10.2366 15.184 11.066 15.5256 12.05 15.5256ZM12.05 13.5256C11.6333 13.5256 11.279 13.3796 10.987 13.0876C10.695 12.7956 10.5493 12.4416 10.55 12.0256C10.55 11.609 10.696 11.2546 10.988 10.9626C11.28 10.6706 11.634 10.525 12.05 10.5256C12.4666 10.5256 12.821 10.6716 13.113 10.9636C13.405 11.2556 13.5506 11.6096 13.55 12.0256C13.55 12.4423 13.404 12.7966 13.112 13.0886C12.82 13.3806 12.466 13.5263 12.05 13.5256ZM11 20.0256H12.975L13.325 17.3756C13.8416 17.2423 14.321 17.0463 14.763 16.7876C15.205 16.529 15.609 16.2166 15.975 15.8506L18.45 16.8756L19.4249 15.1756L17.275 13.5506C17.3583 13.3173 17.4166 13.0716 17.45 12.8136C17.4833 12.5556 17.5 12.293 17.5 12.0256C17.5 11.759 17.4833 11.4966 17.45 11.2386C17.4166 10.9806 17.3583 10.7346 17.275 10.5006L19.4249 8.87564L18.45 7.17563L15.975 8.22563C15.6083 7.8423 15.2043 7.52163 14.763 7.26363C14.3216 7.00563 13.8423 6.80963 13.325 6.67563L13 4.02563H11.025L10.675 6.67563C10.1583 6.80897 9.67928 7.00497 9.23795 7.26363C8.79662 7.5223 8.39228 7.83463 8.02495 8.20063L5.54995 7.17563L4.57495 8.87564L6.72495 10.4756C6.64162 10.7256 6.58328 10.9756 6.54995 11.2256C6.51662 11.4756 6.49995 11.7423 6.49995 12.0256C6.49995 12.2923 6.51662 12.5506 6.54995 12.8006C6.58328 13.0506 6.64162 13.3006 6.72495 13.5506L4.57495 15.1756L5.54995 16.8756L8.02495 15.8256C8.39162 16.209 8.79595 16.53 9.23795 16.7886C9.67995 17.0473 10.159 17.243 10.675 17.3756L11 20.0256Z" fill="#F9F9F9"/>
</g>
</svg>
