<svg width="17" height="18" viewBox="0 0 17 18" fill="none" xmlns="http://www.w3.org/2000/svg">
<g id="share-sv">
<path id="share-sv_2" d="M13.6576 17.0256C12.9493 17.0256 12.3472 16.7777 11.8513 16.2818C11.3555 15.786 11.1076 15.1839 11.1076 14.4756C11.1076 14.3764 11.1147 14.2736 11.1288 14.167C11.143 14.0605 11.1643 13.965 11.1926 13.8806L5.20009 10.3956C4.95926 10.6081 4.69009 10.7747 4.39259 10.8954C4.09509 11.0161 3.78343 11.0761 3.45759 11.0756C2.74926 11.0756 2.14718 10.8277 1.65134 10.3318C1.15551 9.83599 0.907593 9.23391 0.907593 8.52557C0.907593 7.81724 1.15551 7.21516 1.65134 6.71932C2.14718 6.22349 2.74926 5.97557 3.45759 5.97557C3.78343 5.97557 4.09509 6.03592 4.39259 6.15662C4.69009 6.27732 4.95926 6.44364 5.20009 6.65557L11.1926 3.17057C11.1643 3.08557 11.143 2.99009 11.1288 2.88412C11.1147 2.77816 11.1076 2.67531 11.1076 2.57557C11.1076 1.86724 11.3555 1.26516 11.8513 0.769324C12.3472 0.27349 12.9493 0.0255737 13.6576 0.0255737C14.3659 0.0255737 14.968 0.27349 15.4638 0.769324C15.9597 1.26516 16.2076 1.86724 16.2076 2.57557C16.2076 3.28391 15.9597 3.88599 15.4638 4.38182C14.968 4.87766 14.3659 5.12557 13.6576 5.12557C13.3318 5.12557 13.0201 5.06551 12.7226 4.94537C12.4251 4.82524 12.1559 4.65864 11.9151 4.44557L5.92259 7.93057C5.95093 8.01557 5.97218 8.11134 5.98634 8.21787C6.00051 8.32441 6.00759 8.42697 6.00759 8.52557C6.00759 8.62474 6.00051 8.72759 5.98634 8.83412C5.97218 8.94066 5.95093 9.03614 5.92259 9.12057L11.9151 12.6056C12.1559 12.3931 12.4251 12.2268 12.7226 12.1066C13.0201 11.9865 13.3318 11.9261 13.6576 11.9256C14.3659 11.9256 14.968 12.1735 15.4638 12.6693C15.9597 13.1652 16.2076 13.7672 16.2076 14.4756C16.2076 15.1839 15.9597 15.786 15.4638 16.2818C14.968 16.7777 14.3659 17.0256 13.6576 17.0256ZM13.6576 3.42557C13.8984 3.42557 14.1004 3.34397 14.2636 3.18077C14.4268 3.01757 14.5082 2.81584 14.5076 2.57557C14.5076 2.33474 14.426 2.13272 14.2628 1.96952C14.0996 1.80632 13.8979 1.72501 13.6576 1.72557C13.4168 1.72557 13.2147 1.80717 13.0515 1.97037C12.8883 2.13357 12.807 2.33531 12.8076 2.57557C12.8076 2.81641 12.8892 3.01842 13.0524 3.18162C13.2156 3.34482 13.4173 3.42614 13.6576 3.42557ZM3.45759 9.37557C3.69843 9.37557 3.90044 9.29397 4.06364 9.13077C4.22684 8.96757 4.30816 8.76584 4.30759 8.52557C4.30759 8.28474 4.22599 8.08272 4.06279 7.91952C3.89959 7.75632 3.69786 7.67501 3.45759 7.67557C3.21676 7.67557 3.01474 7.75717 2.85154 7.92037C2.68834 8.08357 2.60703 8.28531 2.60759 8.52557C2.60759 8.76641 2.68919 8.96842 2.85239 9.13162C3.01559 9.29482 3.21733 9.37614 3.45759 9.37557ZM13.6576 15.3256C13.8984 15.3256 14.1004 15.244 14.2636 15.0808C14.4268 14.9176 14.5082 14.7158 14.5076 14.4756C14.5076 14.2347 14.426 14.0327 14.2628 13.8695C14.0996 13.7063 13.8979 13.625 13.6576 13.6256C13.4168 13.6256 13.2147 13.7072 13.0515 13.8704C12.8883 14.0336 12.807 14.2353 12.8076 14.4756C12.8076 14.7164 12.8892 14.9184 13.0524 15.0816C13.2156 15.2448 13.4173 15.3261 13.6576 15.3256Z" fill="#1D9BF0"/>
</g>
</svg>
