<svg width="17" height="18" viewBox="0 0 17 18" fill="none" xmlns="http://www.w3.org/2000/svg">
<g id="share-sv">
<path id="share-sv_2" d="M13.7217 17.0256C13.0133 17.0256 12.4113 16.7777 11.9154 16.2818C11.4196 15.786 11.1717 15.1839 11.1717 14.4756C11.1717 14.3764 11.1788 14.2736 11.1929 14.167C11.2071 14.0605 11.2283 13.965 11.2567 13.8806L5.26418 10.3956C5.02335 10.6081 4.75418 10.7747 4.45668 10.8954C4.15918 11.0161 3.84751 11.0761 3.52168 11.0756C2.81335 11.0756 2.21126 10.8277 1.71543 10.3318C1.2196 9.83599 0.97168 9.23391 0.97168 8.52557C0.97168 7.81724 1.2196 7.21516 1.71543 6.71932C2.21126 6.22349 2.81335 5.97557 3.52168 5.97557C3.84751 5.97557 4.15918 6.03592 4.45668 6.15662C4.75418 6.27732 5.02335 6.44364 5.26418 6.65557L11.2567 3.17057C11.2283 3.08557 11.2071 2.99009 11.1929 2.88412C11.1788 2.77816 11.1717 2.67531 11.1717 2.57557C11.1717 1.86724 11.4196 1.26516 11.9154 0.769324C12.4113 0.27349 13.0133 0.0255737 13.7217 0.0255737C14.43 0.0255737 15.0321 0.27349 15.5279 0.769324C16.0238 1.26516 16.2717 1.86724 16.2717 2.57557C16.2717 3.28391 16.0238 3.88599 15.5279 4.38182C15.0321 4.87766 14.43 5.12557 13.7217 5.12557C13.3958 5.12557 13.0842 5.06551 12.7867 4.94537C12.4892 4.82524 12.22 4.65864 11.9792 4.44557L5.98668 7.93057C6.01501 8.01557 6.03626 8.11134 6.05043 8.21787C6.0646 8.32441 6.07168 8.42697 6.07168 8.52557C6.07168 8.62474 6.0646 8.72759 6.05043 8.83412C6.03626 8.94066 6.01501 9.03614 5.98668 9.12057L11.9792 12.6056C12.22 12.3931 12.4892 12.2268 12.7867 12.1066C13.0842 11.9865 13.3958 11.9261 13.7217 11.9256C14.43 11.9256 15.0321 12.1735 15.5279 12.6693C16.0238 13.1652 16.2717 13.7672 16.2717 14.4756C16.2717 15.1839 16.0238 15.786 15.5279 16.2818C15.0321 16.7777 14.43 17.0256 13.7217 17.0256ZM13.7217 3.42557C13.9625 3.42557 14.1645 3.34397 14.3277 3.18077C14.4909 3.01757 14.5722 2.81584 14.5717 2.57557C14.5717 2.33474 14.4901 2.13272 14.3269 1.96952C14.1637 1.80632 13.9619 1.72501 13.7217 1.72557C13.4808 1.72557 13.2788 1.80717 13.1156 1.97037C12.9524 2.13357 12.8711 2.33531 12.8717 2.57557C12.8717 2.81641 12.9533 3.01842 13.1165 3.18162C13.2797 3.34482 13.4814 3.42614 13.7217 3.42557ZM3.52168 9.37557C3.76251 9.37557 3.96453 9.29397 4.12773 9.13077C4.29093 8.96757 4.37225 8.76584 4.37168 8.52557C4.37168 8.28474 4.29008 8.08272 4.12688 7.91952C3.96368 7.75632 3.76195 7.67501 3.52168 7.67557C3.28085 7.67557 3.07883 7.75717 2.91563 7.92037C2.75243 8.08357 2.67111 8.28531 2.67168 8.52557C2.67168 8.76641 2.75328 8.96842 2.91648 9.13162C3.07968 9.29482 3.28141 9.37614 3.52168 9.37557ZM13.7217 15.3256C13.9625 15.3256 14.1645 15.244 14.3277 15.0808C14.4909 14.9176 14.5722 14.7158 14.5717 14.4756C14.5717 14.2347 14.4901 14.0327 14.3269 13.8695C14.1637 13.7063 13.9619 13.625 13.7217 13.6256C13.4808 13.6256 13.2788 13.7072 13.1156 13.8704C12.9524 14.0336 12.8711 14.2353 12.8717 14.4756C12.8717 14.7164 12.9533 14.9184 13.1165 15.0816C13.2797 15.2448 13.4814 15.3261 13.7217 15.3256Z" fill="#525252"/>
</g>
</svg>
